<svg class="solo-logo" xmlns="http://www.w3.org/2000/svg" viewBox="0 0 90 90.04"><path d="M90,45a20.43,20.43,0,0,1-7.24,15.64A20.53,20.53,0,0,1,64,82.8c-.56,0-1.12.07-1.69.07a11.19,11.19,0,0,1-1.64-.08,20.52,20.52,0,0,1-28.94,2.36,20.23,20.23,0,0,1-2.36-2.36c-.55,0-1.09.08-1.64.08A20.53,20.53,0,0,1,7.18,62.33c0-.56,0-1.11.06-1.67A20.51,20.51,0,0,1,4.88,31.74a21.12,21.12,0,0,1,2.36-2.37A20.56,20.56,0,0,1,26.09,7.23c.54-.05,1.09-.07,1.64-.07a11.26,11.26,0,0,1,1.64.08A20.52,20.52,0,0,1,58.3,4.88a20.23,20.23,0,0,1,2.36,2.36c.55,0,1.1-.08,1.64-.08A20.56,20.56,0,0,1,82.86,27.71c0,.55,0,1.11-.07,1.66A20.5,20.5,0,0,1,90,45ZM71,48.08l-5.46,5.45v7.72h3.89a16.11,16.11,0,0,0,8.66-2.53,16.15,16.15,0,0,0-4.35-7.89ZM45,68l2.38-2.39H42.63Zm6.72-6.72,9.51-9.51V38.29l-9.51-9.51H38.29l-9.5,9.51h0l-4.34,4.34h0L22.06,45l2.39,2.38V42.63l4.34-4.34V51.74l9.5,9.51ZM16.25,50.83a16.13,16.13,0,0,0-4.34,7.89,16.11,16.11,0,0,0,8.66,2.53h3.88V53.54L19,48.08ZM28.79,61.25h3.37l-3.37-3.38Zm13.84-36.8h4.78L45,22.06Zm22.95,23L68,45l-2.39-2.39Zm-7.71,13.8h3.38V57.87Zm15.91-22a16.11,16.11,0,0,0,4.35-7.89,16.2,16.2,0,0,0-8.66-2.53H65.58V32l-3.13-3.15L58.13,24.5h3.12V20.57a16.11,16.11,0,0,0-2.53-8.66,16.13,16.13,0,0,0-7.89,4.34L48.08,19l5.46,5.45h0l4.32,4.33L71,42Zm-10.3-27.7a20.36,20.36,0,0,1,2.1,9v3.88h3.89a20.64,20.64,0,0,1,9,2.1,16.19,16.19,0,0,0-15-15ZM34.42,8.3a20.51,20.51,0,0,1,7.85,4.88L45,15.93l2.74-2.75A20.7,20.7,0,0,1,55.62,8.3,16.17,16.17,0,0,0,34.42,8.3ZM11.55,26.55a20.64,20.64,0,0,1,9-2.1h3.88V20.57a20.64,20.64,0,0,1,2.1-9,16.2,16.2,0,0,0-15,15ZM8.3,55.61a20.61,20.61,0,0,1,4.89-7.85l19-19h0l4.32-4.33h0L42,19l-2.74-2.75a16.08,16.08,0,0,0-7.9-4.34,16.19,16.19,0,0,0-2.52,8.66v3.88h3.08L27.6,28.78,24.5,31.9V28.78H20.57a16.11,16.11,0,0,0-8.66,2.53,16,16,0,0,0,4.34,7.89L19,42l-3.07,3-2.74-2.75A20.58,20.58,0,0,1,8.3,34.42,16.15,16.15,0,0,0,8.3,55.61ZM26.55,78.48a20.64,20.64,0,0,1-2.1-9v-3.9H20.57a20.36,20.36,0,0,1-9-2.1,16.19,16.19,0,0,0,15,15Zm29.07,3.25a20.38,20.38,0,0,1-7.86-4.88l-.44-.45,3.06-3.07.45.45a16.15,16.15,0,0,0,7.89,4.35,16.11,16.11,0,0,0,2.53-8.66V65.58H53.54L45,74.1h0L41.94,71h0L36.5,65.58H28.79v3.89a16.19,16.19,0,0,0,2.52,8.66,16.18,16.18,0,0,0,7.9-4.35l.43-.44,3.06,3.07-.43.44a20.27,20.27,0,0,1-7.85,4.88A16.14,16.14,0,0,0,55.62,81.73ZM78.48,63.48a20.36,20.36,0,0,1-9,2.1h-3.9v3.89a20.36,20.36,0,0,1-2.1,9,16.18,16.18,0,0,0,15-15ZM85.7,45a16.16,16.16,0,0,0-4-10.6,20.2,20.2,0,0,1-4.88,7.85L74.1,45l2.75,2.74a20.35,20.35,0,0,1,4.88,7.85A16.09,16.09,0,0,0,85.7,45Z" fill="#fff"></path></svg>